<svg width="36" height="20" viewBox="0 0 36 20" fill="none" xmlns="http://www.w3.org/2000/svg">
<path d="M4.78 0.45L2.88 4.75V7H2.03V4.75L0.13 0.45H1.1L2.46 3.85L3.83 0.45H4.78ZM6.63734 2C7.23068 2 7.67068 2.16 7.95734 2.48C8.25068 2.79333 8.39734 3.24 8.39734 3.82V5.3C8.39734 5.88 8.25068 6.33 7.95734 6.65C7.67068 6.96333 7.23068 7.12 6.63734 7.12C6.04401 7.12 5.60068 6.96333 5.30734 6.65C5.02068 6.33 4.87734 5.88 4.87734 5.3V3.82C4.87734 3.24 5.02068 2.79333 5.30734 2.48C5.60068 2.16 6.04401 2 6.63734 2ZM6.63734 2.71C6.35068 2.71 6.12734 2.8 5.96734 2.98C5.80734 3.16 5.72734 3.41667 5.72734 3.75V5.37C5.72734 5.70333 5.80734 5.96 5.96734 6.14C6.12734 6.32 6.35068 6.41 6.63734 6.41C6.92401 6.41 7.14734 6.32 7.30734 6.14C7.46734 5.96 7.54734 5.70333 7.54734 5.37V3.74C7.54734 3.40667 7.46734 3.15333 7.30734 2.98C7.14734 2.8 6.92401 2.71 6.63734 2.71ZM13.0941 7H12.2941V6.3C12.1141 6.56667 11.9141 6.77 11.6941 6.91C11.4741 7.05 11.2408 7.12 10.9941 7.12C10.5875 7.12 10.2675 6.98 10.0341 6.7C9.80747 6.41333 9.69414 5.99667 9.69414 5.45V2.12H10.5441V5.3C10.5441 5.65333 10.5975 5.91333 10.7041 6.08C10.8175 6.24667 10.9708 6.33 11.1641 6.33C11.3441 6.33 11.5308 6.26 11.7241 6.12C11.9241 5.97333 12.0975 5.77333 12.2441 5.52V2.12H13.0941V7ZM17.1957 0.45V6.25H19.7957V7H16.3457V0.45H17.1957ZM22.3112 2C22.9045 2 23.3445 2.16 23.6312 2.48C23.9245 2.79333 24.0712 3.24 24.0712 3.82V5.3C24.0712 5.88 23.9245 6.33 23.6312 6.65C23.3445 6.96333 22.9045 7.12 22.3112 7.12C21.7178 7.12 21.2745 6.96333 20.9812 6.65C20.6945 6.33 20.5512 5.88 20.5512 5.3V3.82C20.5512 3.24 20.6945 2.79333 20.9812 2.48C21.2745 2.16 21.7178 2 22.3112 2ZM22.3112 2.71C22.0245 2.71 21.8012 2.8 21.6412 2.98C21.4812 3.16 21.4012 3.41667 21.4012 3.75V5.37C21.4012 5.70333 21.4812 5.96 21.6412 6.14C21.8012 6.32 22.0245 6.41 22.3112 6.41C22.5978 6.41 22.8212 6.32 22.9812 6.14C23.1412 5.96 23.2212 5.70333 23.2212 5.37V3.74C23.2212 3.40667 23.1412 3.15333 22.9812 2.98C22.8212 2.8 22.5978 2.71 22.3112 2.71ZM28.8587 2.12L27.3487 7H26.2387L24.7387 2.12H25.6387L26.7987 6.38L27.9587 2.12H28.8587ZM31.2258 2C31.7858 2 32.2124 2.15333 32.5058 2.46C32.7991 2.76667 32.9458 3.21 32.9458 3.79V4.82H30.3758V5.41C30.3758 5.75 30.4558 5.99667 30.6158 6.15C30.7824 6.29667 31.0424 6.37 31.3958 6.37C31.7424 6.37 32.1758 6.31667 32.6958 6.21L32.7158 6.95C32.0958 7.06333 31.6524 7.12 31.3858 7.12C30.7258 7.12 30.2491 6.97667 29.9558 6.69C29.6691 6.40333 29.5258 5.96 29.5258 5.36V3.79C29.5258 3.21 29.6658 2.76667 29.9458 2.46C30.2324 2.15333 30.6591 2 31.2258 2ZM31.2258 2.71C30.9658 2.71 30.7591 2.79333 30.6058 2.96C30.4524 3.12 30.3758 3.35333 30.3758 3.66V4.14H32.0958V3.69C32.0958 3.37 32.0158 3.12667 31.8558 2.96C31.7024 2.79333 31.4924 2.71 31.2258 2.71ZM34.4984 5.9C34.6784 5.9 34.8151 5.94 34.9084 6.02C35.0018 6.09333 35.0484 6.20333 35.0484 6.35V6.67C35.0484 6.86333 35.0251 7.03333 34.9784 7.18L34.5484 8.61H33.9484L34.3084 7.08C34.0751 7.02667 33.9584 6.88333 33.9584 6.65V6.35C33.9584 6.20333 34.0051 6.09333 34.0984 6.02C34.1918 5.94 34.3251 5.9 34.4984 5.9ZM4.26 13.12L2.02 19.85H1.17L1.81 18H1.49L0.1 13.12H1.03L2.08 17.39L3.38 13.12H4.26ZM6.68617 13C7.27951 13 7.71951 13.16 8.00617 13.48C8.29951 13.7933 8.44617 14.24 8.44617 14.82V16.3C8.44617 16.88 8.29951 17.33 8.00617 17.65C7.71951 17.9633 7.27951 18.12 6.68617 18.12C6.09284 18.12 5.64951 17.9633 5.35617 17.65C5.06951 17.33 4.92617 16.88 4.92617 16.3V14.82C4.92617 14.24 5.06951 13.7933 5.35617 13.48C5.64951 13.16 6.09284 13 6.68617 13ZM6.68617 13.71C6.39951 13.71 6.17617 13.8 6.01617 13.98C5.85617 14.16 5.77617 14.4167 5.77617 14.75V16.37C5.77617 16.7033 5.85617 16.96 6.01617 17.14C6.17617 17.32 6.39951 17.41 6.68617 17.41C6.97284 17.41 7.19617 17.32 7.35617 17.14C7.51617 16.96 7.59617 16.7033 7.59617 16.37V14.74C7.59617 14.4067 7.51617 14.1533 7.35617 13.98C7.19617 13.8 6.97284 13.71 6.68617 13.71ZM13.143 18H12.343V17.3C12.163 17.5667 11.963 17.77 11.743 17.91C11.523 18.05 11.2896 18.12 11.043 18.12C10.6363 18.12 10.3163 17.98 10.083 17.7C9.8563 17.4133 9.74297 16.9967 9.74297 16.45V13.12H10.593V16.3C10.593 16.6533 10.6463 16.9133 10.753 17.08C10.8663 17.2467 11.0196 17.33 11.213 17.33C11.393 17.33 11.5796 17.26 11.773 17.12C11.973 16.9733 12.1463 16.7733 12.293 16.52V13.12H13.143V18ZM16.6777 13C16.771 13 16.8443 13.0067 16.8977 13.02V13.98C16.7977 13.96 16.6677 13.95 16.5077 13.95C16.041 13.95 15.671 14.1833 15.3977 14.65V18H14.5477V13.12H15.3477V13.85C15.5277 13.5767 15.7277 13.3667 15.9477 13.22C16.1743 13.0733 16.4177 13 16.6777 13ZM20.4465 11.17V18H19.5965V11.17H20.4465ZM23.5026 13C24.0959 13 24.5359 13.16 24.8226 13.48C25.1159 13.7933 25.2626 14.24 25.2626 14.82V16.3C25.2626 16.88 25.1159 17.33 24.8226 17.65C24.5359 17.9633 24.0959 18.12 23.5026 18.12C22.9092 18.12 22.4659 17.9633 22.1726 17.65C21.8859 17.33 21.7426 16.88 21.7426 16.3V14.82C21.7426 14.24 21.8859 13.7933 22.1726 13.48C22.4659 13.16 22.9092 13 23.5026 13ZM23.5026 13.71C23.2159 13.71 22.9926 13.8 22.8326 13.98C22.6726 14.16 22.5926 14.4167 22.5926 14.75V16.37C22.5926 16.7033 22.6726 16.96 22.8326 17.14C22.9926 17.32 23.2159 17.41 23.5026 17.41C23.7892 17.41 24.0126 17.32 24.1726 17.14C24.3326 16.96 24.4126 16.7033 24.4126 16.37V14.74C24.4126 14.4067 24.3326 14.1533 24.1726 13.98C24.0126 13.8 23.7892 13.71 23.5026 13.71ZM28.3594 11.05C28.5794 11.05 28.7894 11.0733 28.9894 11.12V11.8C28.7894 11.7667 28.5827 11.75 28.3694 11.75C28.1627 11.75 27.9994 11.8167 27.8794 11.95C27.766 12.0833 27.7094 12.2867 27.7094 12.56V13.12H28.7094V13.82H27.7094V18H26.8594V13.82H26.1594V13.12H26.8594V12.61C26.866 12.09 26.996 11.7 27.2494 11.44C27.5027 11.18 27.8727 11.05 28.3594 11.05ZM30.6844 13.12H31.9844V13.82H30.6844V16.68C30.6844 16.9333 30.7344 17.1167 30.8344 17.23C30.941 17.3367 31.1044 17.39 31.3244 17.39C31.6044 17.39 31.8777 17.3567 32.1444 17.29L32.1644 18C31.871 18.08 31.6044 18.12 31.3644 18.12C30.831 18.12 30.441 18.0033 30.1944 17.77C29.9544 17.53 29.8344 17.1433 29.8344 16.61V13.82H29.1344V13.12H29.8344L29.9944 11.82H30.6844V13.12ZM33.8933 11.05L33.8233 16H33.0133L32.9433 11.05H33.8933ZM33.4133 16.92C33.5933 16.92 33.7299 16.96 33.8233 17.04C33.9233 17.12 33.9733 17.2333 33.9733 17.38V17.67C33.9733 17.8167 33.9233 17.9267 33.8233 18C33.7299 18.08 33.5933 18.12 33.4133 18.12C33.2399 18.12 33.1033 18.08 33.0033 18C32.9099 17.9267 32.8633 17.8167 32.8633 17.67V17.38C32.8633 17.2333 32.9099 17.12 33.0033 17.04C33.1033 16.96 33.2399 16.92 33.4133 16.92Z" fill="#AAAAAA"/>
</svg>
